<?xml version="1.0" encoding="UTF-8" standalone="no"?>
<!-- Created with Inkscape (http://www.inkscape.org/) -->
<svg
   xmlns:dc="http://purl.org/dc/elements/1.1/"
   xmlns:cc="http://web.resource.org/cc/"
   xmlns:rdf="http://www.w3.org/1999/02/22-rdf-syntax-ns#"
   xmlns:svg="http://www.w3.org/2000/svg"
   xmlns="http://www.w3.org/2000/svg"
   xmlns:xlink="http://www.w3.org/1999/xlink"
   xmlns:sodipodi="http://sodipodi.sourceforge.net/DTD/sodipodi-0.dtd"
   xmlns:inkscape="http://www.inkscape.org/namespaces/inkscape"
   width="750"
   height="345"
   id="svg2"
   sodipodi:version="0.32"
   inkscape:version="0.44.1"
   sodipodi:docbase="C:\work"
   sodipodi:docname="astonmartinlogo.svg"
   version="1.0">
  <defs
     id="defs4">
    <linearGradient
       id="linearGradient2802">
      <stop
         style="stop-color:#339967;stop-opacity:1;"
         offset="0"
         id="stop2804" />
      <stop
         style="stop-color:#075a39;stop-opacity:1;"
         offset="1"
         id="stop2806" />
    </linearGradient>
    <linearGradient
       inkscape:collect="always"
       xlink:href="#linearGradient2802"
       id="linearGradient2836"
       gradientUnits="userSpaceOnUse"
       gradientTransform="translate(0,2)"
       x1="-104.125"
       y1="39.78125"
       x2="899.875"
       y2="39.78125" />
  </defs>
  <sodipodi:namedview
     id="base"
     pagecolor="#ffffff"
     bordercolor="#666666"
     borderopacity="1.0"
     gridtolerance="10000"
     guidetolerance="10"
     objecttolerance="10"
     inkscape:pageopacity="0.0"
     inkscape:pageshadow="2"
     inkscape:zoom="1.6059788"
     inkscape:cx="372.04724"
     inkscape:cy="186.95052"
     inkscape:document-units="px"
     inkscape:current-layer="layer1"
     inkscape:window-width="1280"
     inkscape:window-height="998"
     inkscape:window-x="1596"
     inkscape:window-y="-4"
     width="750px"
     height="345px" />
  <metadata
     id="metadata7">
    <rdf:RDF>
      <cc:Work
         rdf:about="">
        <dc:format>image/svg+xml</dc:format>
        <dc:type
           rdf:resource="http://purl.org/dc/dcmitype/StillImage" />
      </cc:Work>
    </rdf:RDF>
  </metadata>
  <g
     inkscape:label="Layer 1"
     inkscape:groupmode="layer"
     id="layer1"
     transform="translate(-5.131019,-359.4655)">
    <g
       id="g2830"
       transform="matrix(0.294417,0,0,0.294417,262.9463,404.4)">
      <path
         id="rect1906"
         d="M -104.125,-29.21875 L -104.125,41.78125 L -104.125,112.78125 L 397.875,112.78125 L 899.875,112.78125 L 899.875,41.78125 L 899.875,-29.21875 L 397.875,-29.21875 L -104.125,-29.21875 z "
         style="fill:url(#linearGradient2836);fill-opacity:1;fill-rule:nonzero;stroke:none;stroke-width:1.70000005;stroke-linecap:round;stroke-linejoin:miter;stroke-miterlimit:4;stroke-dasharray:none;stroke-dashoffset:0;stroke-opacity:1" />
      <path
         id="path1882"
         d="M 246.88817,432.11055 C 236.68557,430.07605 -110.84809,334.63855 -122.61184,330.64085 C -149.22579,321.59655 -167.13645,311.78265 -179.38748,299.53165 C -186.68638,292.23275 -191.67434,284.42945 -197.23257,271.61435 C -202.87492,258.60525 -207.25039,252.94885 -214.76485,248.94955 C -216.78585,247.87395 -258.05018,235.65375 -419.61183,188.28545 C -456.46183,177.48135 -500.33683,164.60345 -517.11183,159.66795 C -533.88683,154.73245 -558.18683,147.58675 -571.11183,143.78855 C -655.48661,118.99415 -651.05546,120.37015 -658.10111,116.77575 C -665.81007,112.84293 -671.56175,106.36779 -679.05324,93.188243 C -682.93547,86.358363 -689.31543,75.134473 -693.23094,68.246253 C -702.57508,51.807903 -704.94262,49.785893 -718.08725,47.017583 C -731.51154,44.190363 -741.33382,39.368923 -748.76587,31.958413 C -753.36458,27.373033 -757.17206,21.572313 -766.61183,4.7699927 C -773.21183,-6.9776873 -779.68094,-17.878217 -780.98762,-19.453417 C -784.03541,-23.127507 -790.11858,-26.225617 -794.32199,-26.244497 C -799.61542,-26.268277 -810.25578,-29.122787 -814.5983,-31.684057 C -820.69012,-35.277087 -823.13269,-38.357927 -833.66231,-55.729717 C -845.83407,-75.810707 -848.55041,-81.157667 -850.56746,-89.006587 C -852.10666,-94.996087 -852.08734,-95.596307 -850.14554,-102.11652 C -846.52186,-114.28417 -838.17886,-121.25096 -823.23917,-124.58458 C -816.44951,-126.09962 -775.84346,-126.22887 -309.73916,-126.21912 C 187.84957,-126.2087 196.60227,-126.17548 209.07967,-124.24946 C 222.90817,-122.11488 230.87777,-119.76582 240.28717,-115.05098 C 263.05387,-103.64306 277.73897,-84.820067 286.56737,-55.730197 C 288.24647,-50.197657 288.69147,-49.631617 292.28507,-48.457897 C 295.36087,-47.453277 318.16097,-47.242477 400.49957,-47.457417 C 497.27717,-47.710037 504.94057,-47.853037 506.52307,-49.435817 C 507.46137,-50.374177 509.29697,-54.874177 510.60237,-59.435817 C 515.72357,-77.332057 527.32807,-94.982527 541.01247,-105.6899 C 554.38287,-116.15151 567.11327,-121.25471 587.38817,-124.28044 C 600.12447,-126.18114 610.65317,-126.2199 1106.3882,-126.19095 C 1588.9863,-126.16277 1612.7351,-126.07866 1619.8882,-124.37231 C 1634.8492,-120.80342 1641.148,-115.6738 1645.5989,-103.43423 C 1648.4447,-95.608357 1648.4399,-95.043187 1645.4467,-85.617607 C 1642.7584,-77.152107 1624.2252,-45.236647 1617.6026,-37.668247 C 1612.7779,-32.154397 1605.3966,-28.579277 1595.8882,-27.150927 C 1591.7632,-26.531267 1587.4609,-25.858307 1586.3275,-25.655467 C 1585.1942,-25.452617 1582.4942,-23.999417 1580.3275,-22.426127 C 1577.1966,-20.152627 1573.7204,-14.878817 1563.3882,3.2729527 C 1548.2545,29.859993 1543.7106,35.318093 1531.8882,41.110583 C 1527.7597,43.133353 1520.1784,45.696103 1515.0234,46.811443 C 1504.2599,49.140273 1501.0809,50.564073 1497.7158,54.563273 C 1496.39,56.138933 1489.2489,68.143953 1481.8467,81.241113 C 1473.6661,95.715633 1466.7138,106.78617 1464.1185,109.47084 C 1461.5878,112.08873 1456.9041,115.27455 1452.6185,117.29325 C 1444.0513,121.32855 1447.0373,120.43555 1201.8882,192.27705 C 1148.8448,207.82145 1082.5922,227.29015 1036.3882,240.90995 C 1023.1882,244.80095 1011.2632,248.57525 1009.8882,249.29725 C 1004.1762,252.29635 998.99266,259.28575 992.92156,272.17475 C 989.57846,279.27225 984.84786,287.87545 982.40916,291.29295 C 971.76912,306.20365 953.69117,317.87345 924.24737,328.83785 C 918.27477,331.06195 879.86317,342.04315 838.88817,353.24045 C 797.91317,364.43785 716.23817,386.76045 657.38817,402.84635 C 551.23637,431.86145 550.29647,432.09695 538.81867,432.54865 C 529.38217,432.91995 525.75637,432.62645 519.15217,430.95635 C 510.02617,428.64855 500.37897,424.18225 494.28227,419.44265 C 492.02407,417.68705 471.81397,398.70505 449.37097,377.26045 C 426.92797,355.81585 407.20067,337.25775 405.53257,336.02025 C 400.77227,332.48885 394.12327,332.89575 389.19057,337.02025 C 387.05287,338.80775 367.18777,357.59525 345.04597,378.77025 C 321.13417,401.63795 301.97027,419.14385 297.84807,421.88445 C 294.03107,424.42235 287.19107,427.75715 282.64817,429.29535 C 275.63047,431.67135 272.50827,432.13085 261.88817,432.35055 C 255.01317,432.49275 248.26317,432.38475 246.88817,432.11055 z M 282.62707,411.20615 C 287.48797,409.21825 294.42117,404.18415 300.23857,398.41865 C 303.09567,395.58705 310.59817,388.35455 316.91077,382.34655 C 323.22337,376.33845 333.33817,366.66135 339.38817,360.84185 C 345.43817,355.02235 352.41317,348.44035 354.88817,346.21515 C 361.34017,340.41435 371.28427,329.83305 370.76837,329.31715 C 370.52727,329.07605 362.46807,328.38705 352.85907,327.78595 C 343.25007,327.18495 328.65597,326.04025 320.42767,325.24225 C 312.19937,324.44425 305.17207,324.12415 304.81157,324.53085 C 304.45107,324.93755 300.01927,340.34525 294.96317,358.77025 C 286.06037,391.21275 281.66187,403.44685 277.02167,408.67325 C 275.84827,409.99495 274.88817,411.71275 274.88817,412.49065 C 274.88817,413.99515 276.43507,413.73835 282.62707,411.20615 z M 520.88817,412.75485 C 520.88817,412.19645 519.34157,409.38395 517.45127,406.50485 C 511.68017,397.71505 509.82117,392.00055 495.79167,339.92495 L 491.38817,323.57965 L 486.38817,324.16825 C 480.68047,324.84005 449.17917,327.36645 434.63817,328.31855 C 429.27567,328.66965 424.89277,329.25245 424.89847,329.61355 C 424.91417,330.61625 433.10627,338.83165 449.48547,354.27025 C 465.74447,369.59575 482.62627,385.73325 492.74437,395.62195 C 501.40777,404.08895 508.72587,409.51085 514.57557,411.79635 C 520.23107,414.00605 520.88817,414.10585 520.88817,412.75485 z M 255.63917,410.52025 C 266.31147,404.61395 270.78847,397.10575 277.25447,374.27025 C 286.45597,341.77365 290.88817,325.30865 290.88817,323.62305 C 290.88817,322.31985 289.71577,321.72695 286.13817,321.22095 C 267.33237,318.56085 238.65167,312.88495 217.69667,307.67635 C 211.26637,306.07795 205.38717,304.77025 204.63187,304.77025 C 203.87657,304.77025 202.50307,306.23275 201.57957,308.02025 C 200.65607,309.80775 199.47297,311.94525 198.95047,312.77025 C 198.42797,313.59525 195.47487,318.54525 192.38807,323.77025 C 189.30127,328.99525 186.37167,333.94525 185.87797,334.77025 C 185.38427,335.59525 180.49017,343.92025 175.00227,353.27025 C 163.59957,372.69755 163.38547,373.00515 155.63817,381.09885 C 152.47567,384.40275 149.88817,387.37045 149.88817,387.69365 C 149.88817,388.01685 156.30067,390.02445 164.13817,392.15495 C 189.03167,398.92175 217.04077,406.61315 227.88817,409.66095 C 241.27827,413.42315 249.91097,413.69045 255.63917,410.52025 z M 600.63817,400.61345 C 625.52567,393.88085 645.88817,387.99045 645.88817,387.52355 C 645.88817,387.05655 643.71357,384.55865 641.05567,381.97245 C 634.49957,375.59325 631.47387,371.39925 622.87397,356.77025 C 618.83247,349.89525 610.83127,336.39525 605.09367,326.77025 C 599.35607,317.14525 594.27377,308.25775 593.79967,307.02025 C 592.70357,304.15935 592.13337,304.18315 578.07967,307.67635 C 557.12467,312.88495 528.44397,318.56085 509.63817,321.22095 C 506.47807,321.66795 504.88817,322.37545 504.88817,323.33485 C 504.88817,324.70515 506.12187,329.27545 517.73677,370.93285 C 522.26027,387.15645 526.15227,397.73985 528.78917,400.98695 C 532.80327,405.93005 534.98717,407.80485 539.38817,410.08575 C 548.04087,414.57025 550.38577,414.20765 600.63817,400.61345 z M 137.02715,380.19845 C 138.69896,379.33385 141.43271,377.42135 143.10216,375.94845 C 146.15936,373.25105 157.88817,358.42775 157.88817,357.26135 C 157.88817,356.66245 181.03907,317.26775 187.02377,307.68275 C 190.25837,302.50225 190.67337,299.77025 188.22567,299.77025 C 185.54527,299.77025 140.6302,284.42905 125.51252,278.34995 C 117.88091,275.28115 111.19878,272.77025 110.66333,272.77025 C 110.12789,272.77025 106.47193,276.24165 102.53899,280.48455 C 95.961857,287.57985 88.067417,295.82175 60.185504,324.70225 C 54.574034,330.51465 48.724034,336.67195 47.185504,338.38515 C 43.039784,343.00135 32.001494,351.77025 30.336244,351.77025 C 29.539804,351.77025 28.888164,352.56025 28.888164,353.52585 C 28.888164,354.93295 31.616834,356.02535 42.638164,359.03055 C 50.200664,361.09265 71.688164,367.00245 90.388167,372.16345 C 109.17962,377.34965 126.53511,381.59695 129.18783,381.65865 C 131.82764,381.72005 135.35534,381.06295 137.02715,380.19845 z M 676.88817,379.91265 C 680.46317,378.92305 702.17567,372.98515 725.13817,366.71745 C 760.18417,357.15145 766.88817,355.03635 766.88817,353.54585 C 766.88817,352.56935 766.32567,351.76425 765.63817,351.75685 C 764.95067,351.74945 763.05597,350.73695 761.42767,349.50685 C 757.43227,346.48845 728.75007,317.73845 710.88817,298.84785 C 689.76197,276.50505 685.65907,272.58915 683.92087,273.10965 C 683.07787,273.36205 675.18817,276.38045 666.38817,279.81705 C 649.47427,286.42235 619.95007,296.57375 611.13817,298.81375 C 608.25067,299.54785 605.88817,300.64895 605.88817,301.26065 C 605.88817,301.87245 608.36317,306.56135 611.38817,311.68055 C 614.41317,316.79965 616.88817,321.18235 616.88817,321.41965 C 616.88817,321.65705 617.74557,323.07055 618.79347,324.56075 C 619.84147,326.05095 625.45747,335.37025 631.27367,345.27025 C 643.77597,366.55125 643.18137,365.66095 648.88817,371.64395 C 658.82797,382.06475 663.80477,383.53445 676.88817,379.91265 z M 17.383124,344.40125 C 24.915754,340.95265 31.639044,335.77805 40.236484,326.81195 C 58.576014,307.68605 71.445884,294.36175 83.638167,281.87755 C 90.925667,274.41565 96.880437,267.85135 96.870987,267.29035 C 96.861537,266.72925 87.974037,261.88405 77.120984,256.52315 C 54.360014,245.28035 45.597324,240.75905 44.879694,239.88765 C 44.013984,238.83655 33.953604,233.77025 32.731954,233.77025 C 31.398154,233.77025 18.636954,242.18795 14.918994,245.52025 C 13.538284,246.75775 11.879004,247.77025 11.231714,247.77025 C 10.584424,247.77025 9.9048344,248.11755 9.7214944,248.54195 C 9.3278944,249.45305 -8.7752956,262.77025 -9.6203056,262.77025 C -9.9386552,262.77025 -11.412385,263.89525 -12.895265,265.27025 C -14.378135,266.64525 -15.910315,267.77025 -16.300095,267.77025 C -16.689875,267.77025 -18.222685,268.89525 -19.706335,270.27025 C -21.189985,271.64525 -22.975675,272.77025 -23.674525,272.77025 C -24.373375,272.77025 -25.095165,273.12585 -25.278505,273.56045 C -25.461835,273.99495 -27.861838,275.90745 -30.611838,277.81045 C -33.361838,279.71335 -35.836838,281.51695 -36.111838,281.81855 C -37.566678,283.41375 -58.270929,297.77025 -59.116619,297.77025 C -59.663989,297.77025 -60.111839,298.13875 -60.111839,298.58905 C -60.111839,299.03945 -64.049339,302.07695 -68.861839,305.33905 C -73.674339,308.60125 -77.761839,311.60775 -77.945169,312.02025 C -78.128509,312.43275 -78.916009,312.77025 -79.695169,312.77025 C -80.474339,312.77025 -81.111839,313.12625 -81.111839,313.56135 C -81.111839,313.99645 -83.586839,315.60565 -86.611839,317.13735 C -89.636839,318.66905 -92.111839,320.45575 -92.111839,321.10785 C -92.111839,321.81215 -81.052379,325.29035 -64.861839,329.67785 C -31.781478,338.64235 -23.678075,340.87475 -10.111835,344.76075 C 2.4253244,348.35195 8.9396044,348.26675 17.383124,344.40125 z M 840.32827,335.27025 C 865.55867,328.39525 886.80617,322.77025 887.54497,322.77025 C 890.92787,322.77025 888.24537,319.94395 881.63387,316.54235 C 877.64877,314.49195 873.25627,311.79195 871.87277,310.54235 C 870.48937,309.29265 866.70407,306.47785 863.46107,304.28705 C 860.21807,302.09635 857.06687,299.80615 856.45857,299.19785 C 855.85017,298.58945 854.85977,297.90685 854.25757,297.68095 C 853.65537,297.45505 851.86337,296.26615 850.27547,295.03885 C 848.68747,293.81155 843.11317,289.78165 837.88817,286.08355 C 828.31517,279.30795 826.96847,278.30135 824.42487,276.02025 C 823.65827,275.33275 822.79817,274.77025 822.51367,274.77025 C 821.55657,274.77025 803.39187,261.63205 803.05487,260.69605 C 802.87147,260.18685 802.28977,259.77025 801.76217,259.77025 C 800.62167,259.77025 789.53557,251.75505 789.05487,250.58295 C 788.87147,250.13595 788.08397,249.77025 787.30487,249.77025 C 786.52567,249.77025 785.88817,249.42265 785.88817,248.99765 C 785.88817,248.57275 784.42567,247.43345 782.63817,246.46585 C 780.85067,245.49825 777.86467,243.37095 776.00267,241.73845 C 774.14067,240.10595 772.34067,238.76975 772.00267,238.76905 C 771.66467,238.76835 770.08067,237.64335 768.48267,236.26905 C 766.88457,234.89475 764.78537,233.77025 763.81757,233.77025 C 762.84987,233.77025 755.33917,237.48275 747.12707,242.02025 C 738.91497,246.55775 724.72387,253.87025 715.59107,258.27025 C 706.45837,262.67025 698.96417,266.54025 698.93717,266.87025 C 698.87337,267.65095 711.08877,280.86885 721.90527,291.72325 C 726.58967,296.42415 738.43447,308.60555 748.22707,318.79325 C 765.76327,337.03685 767.71047,338.70265 777.12537,343.51495 C 783.08017,346.55875 786.44417,347.57545 790.92157,347.68435 C 792.86487,347.73155 815.09797,342.14525 840.32827,335.27025 z M 391.64317,220.52025 L 391.38817,125.27025 L 375.52077,125.27025 L 359.65347,125.27025 L 352.74607,150.27025 C 348.94697,164.02025 337.52477,205.24325 327.36337,241.87685 C 317.20197,278.51045 308.88817,308.94915 308.88817,309.51845 C 308.88817,311.11635 311.84087,311.55465 333.88817,313.22955 C 358.90727,315.13015 362.97327,315.34145 379.14317,315.58115 L 391.89827,315.77025 L 391.64317,220.52025 z M 440.88817,314.77715 C 460.03357,313.63565 480.18517,311.95065 484.13817,311.16085 C 485.65067,310.85865 486.88817,309.97875 486.88817,309.20555 C 486.88817,308.43235 482.78307,293.05555 477.76577,275.03495 C 472.74837,257.01435 467.84897,239.34525 466.87807,235.77025 C 465.90717,232.19525 461.92577,217.79525 458.03047,203.77025 C 454.13517,189.74525 447.64357,166.34525 443.60467,151.77025 L 436.26117,125.27025 L 420.57467,124.99485 L 404.88817,124.71945 L 404.88817,220.24485 L 404.88817,315.77025 L 414.63817,315.76565 C 420.00067,315.76305 431.81317,315.31825 440.88817,314.77715 z M -101.11184,309.69305 C -94.507649,306.88095 -84.356519,301.07545 -81.673279,298.57605 C -80.607069,297.58285 -79.439559,296.77025 -79.078819,296.77025 C -78.718069,296.77025 -77.115429,295.64585 -75.517379,294.27145 C -73.919329,292.89715 -72.335319,291.77215 -71.997349,291.77145 C -71.659379,291.77085 -69.859379,290.43455 -67.997349,288.80215 C -66.135319,287.16965 -63.149339,285.04225 -61.361839,284.07475 C -59.574339,283.10715 -58.111839,281.96775 -58.111839,281.54285 C -58.111839,281.11795 -57.474339,280.77025 -56.695169,280.77025 C -55.916009,280.77025 -55.128509,280.40455 -54.945169,279.95755 C -54.464439,278.78545 -43.378318,270.77025 -42.237868,270.77025 C -41.710218,270.77025 -41.128508,270.38585 -40.945168,269.91595 C -40.761838,269.44605 -37.011838,266.52885 -32.611838,263.43335 C -28.211838,260.33775 -24.150135,257.42365 -23.585845,256.95745 C -23.021545,256.49135 -21.221545,255.25645 -19.585845,254.21325 C -17.950135,253.17005 -16.386835,252.04925 -16.111835,251.72265 C -15.836835,251.39615 -11.336835,248.12245 -6.1118356,244.44775 C -0.8868356,240.77315 3.8498644,237.39395 4.4141544,236.93835 C 4.9784544,236.48275 6.7784544,235.24955 8.4141544,234.19805 C 10.049864,233.14655 12.254994,231.50025 13.314454,230.53965 C 14.373904,229.57905 16.061404,228.53265 17.064454,228.21435 C 20.275204,227.19525 19.088524,224.33795 14.388164,221.77025 C 11.913164,220.41825 9.8881644,218.96515 9.8881644,218.54115 C 9.8881644,218.11715 9.3996944,217.77025 8.8026844,217.77025 C 7.4796744,217.77025 -10.477475,205.81255 -10.945165,204.62015 C -11.128505,204.15275 -11.916005,203.77025 -12.695165,203.77025 C -13.474335,203.77025 -14.111835,203.32025 -14.111835,202.77025 C -14.111835,202.22025 -14.534495,201.77025 -15.051075,201.77025 C -15.924215,201.77025 -28.650358,192.96795 -32.480508,189.71475 C -35.870588,186.83545 -36.681058,186.22325 -40.861838,183.38425 C -43.199338,181.79695 -45.111838,180.10945 -45.111838,179.63425 C -45.111838,179.15905 -45.598238,178.77025 -46.192728,178.77025 C -47.062538,178.77025 -106.97318,206.54995 -161.52427,232.24775 C -172.19219,237.27315 -187.59562,242.77025 -191.00933,242.77025 C -192.16571,242.77025 -193.11183,243.15355 -193.11183,243.62205 C -193.11183,244.09045 -191.09635,247.54235 -188.63298,251.29295 C -186.16961,255.04345 -183.63245,259.72265 -182.99485,261.69115 C -180.96961,267.94385 -175.43205,278.18555 -171.14227,283.61255 C -164.17766,292.42345 -150.473,301.46345 -132.64738,309.00495 C -124.10025,312.62095 -123.15238,312.80615 -115.11184,312.43125 C -109.12933,312.15235 -104.98287,311.34125 -101.11184,309.69305 z M 926.61217,309.68585 C 933.81967,306.82695 949.08517,299.34525 951.38817,297.54305 C 951.93817,297.11265 955.08817,294.73025 958.38817,292.24895 C 966.70872,285.99235 971.71022,278.78335 978.52342,263.22615 C 981.07256,257.40545 983.68526,252.10915 984.32936,251.45665 C 986.07106,249.69215 989.35096,243.88535 988.83556,243.47865 C 988.58946,243.28435 984.69306,242.15915 980.17686,240.97815 C 972.50692,238.97245 965.39922,235.98525 940.38817,224.25595 C 934.88817,221.67665 920.48817,214.93365 908.38817,209.27155 C 896.28817,203.60945 881.05447,196.45535 874.53547,193.37355 C 868.01647,190.29175 862.51947,187.77025 862.31987,187.77025 C 862.12017,187.77025 857.82717,185.74525 852.77967,183.27025 C 847.73207,180.79525 843.23417,178.77025 842.78417,178.77025 C 842.33427,178.77025 841.16107,179.58255 840.17717,180.57535 C 837.23117,183.54775 830.17277,188.77025 829.10127,188.77025 C 828.55177,188.77025 827.84317,189.44525 827.52657,190.27025 C 827.20997,191.09525 826.26177,191.77025 825.41957,191.77025 C 824.57727,191.77025 823.88817,192.18355 823.88817,192.68875 C 823.88817,193.19385 822.20067,194.63955 820.13817,195.90125 C 818.07567,197.16305 815.89727,198.67105 815.29727,199.25235 C 814.69727,199.83365 810.42227,202.76875 805.79727,205.77475 C 801.17227,208.78085 797.16317,211.49015 796.88817,211.79555 C 795.93267,212.85645 781.87137,221.82075 779.38727,222.95265 C 775.87807,224.55155 776.25317,225.93405 781.13817,229.40515 C 802.27337,244.42275 818.44627,256.27685 818.72147,256.95225 C 818.90487,257.40215 819.48667,257.77025 820.01437,257.77025 C 821.09457,257.77025 832.20487,265.85795 832.72147,267.02025 C 832.90487,267.43275 833.48657,267.77025 834.01417,267.77025 C 834.87687,267.77025 845.66517,275.27295 846.88817,276.72345 C 847.16317,277.04965 848.72647,278.17005 850.36217,279.21325 C 851.99787,280.25645 853.79787,281.48885 854.36217,281.95205 C 859.20367,285.92575 886.45737,304.52725 890.38817,306.54095 C 904.14097,313.58605 914.51007,314.48625 926.61217,309.68585 z M 303.86667,278.52025 C 308.46627,261.88275 313.22277,244.67025 314.43677,240.27025 C 315.65077,235.87025 323.22397,208.53515 331.26617,179.52565 C 339.30827,150.51605 345.88817,126.32855 345.88817,125.77565 C 345.88817,125.13925 339.32077,124.77025 327.99567,124.77025 L 310.10327,124.77025 L 296.33567,148.02025 C 275.11067,183.86425 267.55097,196.65705 265.55757,200.10445 C 256.19597,216.29425 251.31457,224.32355 250.66337,224.60365 C 250.23697,224.78695 249.88817,225.29115 249.88817,225.72405 C 249.88817,226.15695 247.02847,231.40695 243.53327,237.39075 C 240.03807,243.37445 234.54727,252.77025 231.33147,258.27025 C 228.11567,263.77025 225.19287,268.49525 224.83637,268.77025 C 224.47977,269.04525 224.00807,269.72385 223.78807,270.27825 C 223.56817,270.83275 220.73787,275.92235 217.49847,281.58865 C 214.15777,287.43235 211.99387,292.24885 212.49847,292.71785 C 215.16217,295.19355 280.37087,308.27305 291.94597,308.65335 L 295.50387,308.77025 L 303.86667,278.52025 z M 520.42277,306.31255 C 550.66487,301.34585 582.80717,294.14485 583.56657,292.16605 C 584.01717,290.99185 583.06107,289.09205 576.49297,278.11085 C 573.66797,273.38775 564.00787,256.99545 549.18387,231.77025 C 545.14377,224.89525 541.43097,218.59525 540.93327,217.77025 C 528.33997,196.89325 508.88817,163.56745 508.88817,162.86905 C 508.88817,162.35635 508.53387,161.78695 508.10087,161.60365 C 507.37517,161.29635 498.04907,145.94085 493.62567,137.77025 C 492.58357,135.84525 490.49957,132.24525 488.99467,129.77025 L 486.25847,125.27025 L 468.07327,124.99775 C 458.07147,124.84785 449.88817,125.09085 449.88817,125.53785 C 449.88817,125.98475 454.81777,144.10745 460.84277,165.81035 C 466.86787,187.51335 478.23037,228.55415 486.09277,257.01215 C 500.16527,307.94715 500.42767,308.75415 502.92277,308.76215 C 504.31687,308.76665 512.19187,307.66425 520.42277,306.31255 z M 203.16807,280.49225 C 205.79697,275.97015 208.35557,271.59525 208.85377,270.77025 C 209.35187,269.94525 213.32067,263.19525 217.67327,255.77025 C 227.22717,239.47255 250.46077,200.14725 254.48947,193.45515 C 258.27857,187.16085 264.98647,175.79735 272.22397,163.41195 C 273.23377,161.68405 276.06547,156.89525 278.51687,152.77025 C 280.96817,148.64525 283.36557,144.59525 283.84437,143.77025 C 284.32317,142.94525 286.77887,138.83405 289.30147,134.63425 C 291.82417,130.43445 293.88817,126.49695 293.88817,125.88425 C 293.88817,125.10105 287.65817,124.77025 272.90417,124.77025 L 251.92007,124.77025 L 243.65417,133.50345 C 239.10787,138.30665 230.59547,147.19415 224.73767,153.25345 C 218.87987,159.31265 208.30487,170.30245 201.23767,177.67505 C 194.17047,185.04765 182.76317,196.94755 175.88817,204.11915 C 169.01317,211.29085 158.66317,222.10395 152.88817,228.14825 C 147.11317,234.19255 137.75017,243.81905 132.0815,249.54055 C 126.32329,255.35245 121.91017,260.61455 122.0815,261.46435 C 122.25506,262.32525 126.51156,264.68755 131.88817,266.90695 C 148.17837,273.63125 192.98077,288.65015 196.88817,288.69645 C 197.72177,288.70635 200.51167,285.06165 203.16807,280.49225 z M 614.45607,284.36025 C 646.81877,274.11635 673.21797,264.01205 673.66347,261.69855 C 673.82337,260.86845 670.45177,256.58715 666.17117,252.18455 C 661.89047,247.78185 651.41317,236.84855 642.88817,227.88825 C 634.36317,218.92805 623.56317,207.68175 618.88817,202.89665 C 606.11267,189.82015 588.14947,171.08325 571.38817,153.35075 C 563.13817,144.62275 553.50647,134.62155 549.98437,131.12595 L 543.58057,124.77025 L 522.73437,124.77025 C 506.56737,124.77025 501.88817,125.05485 501.88817,126.03815 C 501.88817,126.73545 503.01317,128.96155 504.38817,130.98505 C 505.76317,133.00855 506.88817,135.10055 506.88817,135.63385 C 506.88817,136.16725 507.24247,136.75365 507.67547,136.93695 C 508.10857,137.12025 511.10187,141.77025 514.32727,147.27025 C 523.24267,162.47265 528.81447,171.91935 537.91987,187.27025 C 542.48717,194.97025 547.16097,202.91385 548.30607,204.92265 C 549.45127,206.93145 552.48707,212.10645 555.05237,216.42265 C 557.61757,220.73885 560.54257,225.71185 561.55237,227.47385 C 562.56207,229.23575 570.67327,242.96075 579.57727,257.97385 C 588.48117,272.98685 596.06687,286.05775 596.43417,287.02025 C 597.38517,289.51175 598.87727,289.29145 614.45607,284.36025 z M 114.08156,250.02125 C 117.00019,246.85935 124.56317,238.89835 130.88817,232.33025 C 143.89044,218.82805 156.95427,205.20955 175.01207,186.33295 C 190.54967,170.09075 205.39637,154.67755 220.29517,139.32195 C 226.67137,132.75025 231.88817,126.78775 231.88817,126.07195 C 231.88817,125.03805 226.78407,124.77025 207.07677,124.77025 C 184.60277,124.77025 182.08267,124.93925 180.32677,126.56415 C 176.96427,129.67555 167.01507,136.77025 166.01417,136.77025 C 165.48657,136.77025 164.90487,137.11115 164.72147,137.52785 C 164.38817,138.28545 154.56847,145.56755 141.38817,154.83135 C 137.53817,157.53735 133.92647,160.12915 133.36218,160.59095 C 132.79788,161.05275 130.99788,162.28415 129.36218,163.32735 C 127.72647,164.37055 126.16317,165.49095 125.88817,165.81705 C 124.97742,166.89725 113.98467,174.77025 113.38723,174.77025 C 113.06474,174.77025 111.58762,175.89525 110.10474,177.27025 C 108.62187,178.64525 107.04687,179.77025 106.60474,179.77025 C 106.16262,179.77025 104.58762,180.89525 103.10474,182.27025 C 101.62187,183.64525 99.841507,184.77025 99.148387,184.77025 C 98.455267,184.77025 97.888167,185.12325 97.888167,185.55465 C 97.888167,185.98605 96.425667,187.20105 94.638167,188.25455 C 92.850667,189.30815 90.488167,191.00995 89.388167,192.03645 C 88.288167,193.06295 85.813167,194.86175 83.888167,196.03375 C 81.963167,197.20575 80.163167,198.41665 79.888164,198.72465 C 78.526874,200.24905 64.716774,209.77025 63.866924,209.77025 C 63.328604,209.77025 62.888164,210.15295 62.888164,210.62065 C 62.888164,211.08835 58.866584,214.12585 53.951324,217.37065 C 49.036064,220.61545 44.986064,223.73905 44.951324,224.31195 C 44.916584,224.88485 47.250664,226.57945 50.138164,228.07775 C 53.025664,229.57595 57.863164,232.17665 60.888164,233.85685 C 66.057314,236.72815 83.259567,245.39345 97.888167,252.49485 C 101.46317,254.23025 105.37519,255.67725 106.58156,255.71025 C 108.01433,255.74945 110.61514,253.77665 114.08156,250.02125 z M 698.61627,252.17615 C 708.42547,247.63985 727.11057,238.18565 736.88817,232.81155 C 741.01317,230.54425 745.85067,227.94915 747.63817,227.04455 C 751.07647,225.30455 751.84267,223.35055 749.44707,222.43125 C 748.11707,221.92085 734.02317,212.02765 732.88817,210.80765 C 732.61317,210.51215 728.78817,207.81915 724.38817,204.82335 C 712.15277,196.49275 687.42987,178.43375 687.05487,177.55305 C 686.87147,177.12255 686.19187,176.77025 685.54457,176.77025 C 684.89737,176.77025 683.24737,175.73475 681.87797,174.46905 C 680.50857,173.20345 677.92567,171.30635 676.13817,170.25345 C 674.35067,169.20055 672.88817,167.98605 672.88817,167.55465 C 672.88817,167.12325 672.43507,166.77025 671.88127,166.77025 C 671.11147,166.77025 650.41437,152.27385 644.38817,147.51385 C 643.83817,147.07935 637.31317,142.42045 629.88817,137.16075 C 622.46317,131.90095 615.67777,126.96135 614.80947,126.18385 C 612.62777,124.23035 563.88377,124.07375 563.89607,126.02025 C 563.90047,126.70775 570.01737,133.57025 577.48917,141.27025 C 590.78647,154.97365 599.66027,164.17715 624.88817,190.43005 C 651.86777,218.50575 658.91047,225.85325 672.88817,240.50715 C 680.86317,248.86795 688.16577,255.72245 689.11627,255.73945 C 690.06667,255.75645 694.34167,254.15295 698.61627,252.17615 z M -194.38205,230.19105 C -183.59774,227.96355 -178.6667,225.94715 -142.61183,209.02205 C -109.51343,193.48465 -69.399279,174.81905 -62.887639,171.92525 C -58.429999,169.94435 -58.186039,168.59255 -61.861839,166.24115 C -63.374339,165.27365 -65.366229,163.75935 -66.288259,162.87615 C -67.210289,161.99295 -69.880549,159.69525 -72.222169,157.77025 C -81.262809,150.33815 -85.891299,146.16485 -101.97597,130.94225 L -107.34009,125.86565 L -217.97596,159.91725 C -278.82569,178.64565 -329.25422,194.16565 -330.03937,194.40625 C -333.51044,195.46995 -327.16017,197.87825 -300.11183,205.75615 C -272.56506,213.77915 -251.84638,219.84275 -224.61183,227.85235 C -210.0909,232.12285 -205.46661,232.48065 -194.38205,230.19105 z M 1013.3882,229.86955 C 1017.2382,228.84305 1024.2132,226.86645 1028.8882,225.47715 C 1041.4811,221.73495 1086.5358,208.47495 1100.8882,204.28695 C 1125.2033,197.19185 1126.8882,196.60125 1126.8882,195.17285 C 1126.8882,194.40145 1126.0837,193.77025 1125.1003,193.77025 C 1124.117,193.77025 1109.6045,189.53135 1092.8503,184.35045 C 963.15422,144.24455 905.85587,126.77025 904.04357,126.77025 C 902.82727,126.77025 899.69097,129.00405 896.65877,132.03005 C 893.75997,134.92295 888.68817,139.70625 885.38817,142.65965 C 882.08817,145.61305 877.32867,149.88365 874.81157,152.14985 C 866.55947,159.57935 858.71967,166.25545 857.29097,167.06995 C 854.19717,168.83365 856.50587,170.58885 870.63817,177.21755 C 878.75067,181.02265 890.56317,186.56995 896.88817,189.54485 C 947.64347,213.41695 977.27692,226.87165 982.21906,228.28805 C 995.46406,232.08415 1003.5448,232.49415 1013.3882,229.86955 z M 39.361164,212.02025 C 43.210944,209.40775 47.487334,206.25775 48.864244,205.02025 C 50.241164,203.78275 51.728814,202.77025 52.170154,202.77025 C 52.930334,202.77025 54.171654,201.87185 57.351444,199.02025 C 58.118064,198.33275 59.021444,197.77025 59.358944,197.77025 C 59.946194,197.77025 61.323094,196.73605 64.351444,194.02025 C 65.118064,193.33275 66.189954,192.77025 66.733404,192.77025 C 67.276854,192.77025 67.871494,192.40455 68.054834,191.95755 C 68.555894,190.73585 79.645694,182.77025 80.845467,182.77025 C 81.418957,182.77025 81.888167,182.40185 81.888167,181.95145 C 81.888167,181.50115 85.821977,178.46365 90.629977,175.20145 C 95.437967,171.93935 100.24783,168.48275 101.31854,167.52025 C 102.38925,166.55775 103.5983,165.77025 104.0053,165.77025 C 104.41231,165.77025 105.40135,165.11425 106.20317,164.31245 C 107.00499,163.51055 111.87463,159.91495 117.0246,156.32215 C 122.17456,152.72925 126.84987,149.41175 127.41416,148.94975 C 127.97846,148.48785 129.77846,147.24955 131.41416,146.19805 C 133.04987,145.14655 135.26052,143.49515 136.32673,142.52825 C 137.39294,141.56135 138.5983,140.77025 139.0053,140.77025 C 139.41231,140.77025 140.33996,140.20775 141.06674,139.52025 C 143.28412,137.42275 153.76207,129.77025 154.41667,129.77025 C 155.43217,129.77025 157.88817,126.99095 157.88817,125.84175 C 157.88817,125.09575 144.26602,124.77025 113.04228,124.77025 L 68.196374,124.77025 L 48.792274,133.87595 C 38.120014,138.88405 27.138164,144.00435 24.388164,145.25425 C 21.638164,146.50425 8.2437344,152.75665 -5.3772256,159.14865 C -18.998195,165.54055 -30.585698,170.77025 -31.127228,170.77025 C -33.163798,170.77025 -31.996218,173.51785 -28.861838,176.10125 C -27.074335,177.57455 -22.011835,181.34345 -17.611835,184.47675 C -13.211835,187.60995 -9.3868356,190.42125 -9.1118356,190.72395 C -8.8368356,191.02665 -2.0868356,195.54845 5.8881644,200.77235 C 13.863164,205.99615 20.538164,210.60775 20.721494,211.02025 C 20.904834,211.43275 21.579834,211.79625 22.221494,211.82795 C 22.863164,211.85965 24.963164,212.95865 26.888164,214.27025 C 28.813164,215.58185 30.832174,216.68095 31.374864,216.71265 C 31.917544,216.74435 35.511384,214.63275 39.361164,212.02025 z M 769.29927,214.27025 C 771.10197,212.89525 772.89097,211.77025 773.27477,211.77025 C 773.65857,211.77025 774.51607,211.31555 775.18037,210.75965 C 777.93467,208.45505 796.14327,196.77025 796.98027,196.77025 C 797.47957,196.77025 797.88817,196.41725 797.88817,195.98585 C 797.88817,195.55445 799.12567,194.46895 800.63817,193.57355 C 807.18577,189.69755 827.88457,173.69765 827.84817,172.54065 C 827.82607,171.84195 824.11357,169.58555 819.59817,167.52645 C 815.08267,165.46735 806.21317,161.36535 799.88817,158.41085 C 793.56317,155.45635 781.86317,149.99445 773.88817,146.27315 C 765.91317,142.55185 755.56317,137.71515 750.88817,135.52475 C 746.21317,133.33445 739.06947,130.01865 735.01337,128.15635 L 727.63847,124.77025 L 682.76337,124.77025 C 643.54097,124.77025 637.88817,124.95925 637.88817,126.27025 C 637.88817,127.09525 638.22567,127.77085 638.63817,127.77145 C 639.05067,127.77215 640.69567,128.89715 642.29367,130.27145 C 643.89177,131.64585 645.49437,132.77025 645.85517,132.77025 C 646.21587,132.77025 647.38357,133.55775 648.45007,134.52025 C 649.51647,135.48275 653.08877,138.10895 656.38857,140.35625 C 663.89787,145.47045 684.21667,159.99215 684.88817,160.72475 C 685.16317,161.02475 687.63817,162.82725 690.38817,164.73015 C 693.13817,166.63305 695.53817,168.54555 695.72147,168.98015 C 695.90487,169.41475 696.48667,169.77025 697.01437,169.77025 C 698.09457,169.77025 709.20487,177.85795 709.72147,179.02025 C 709.90487,179.43275 710.48317,179.77025 711.00667,179.77025 C 711.89237,179.77025 729.78127,192.42425 730.88817,193.83365 C 731.16317,194.18385 731.88887,194.65035 732.50087,194.87035 C 733.11297,195.09035 734.91297,196.27305 736.50087,197.49865 C 745.08907,204.12705 763.56867,216.74525 764.70487,216.75685 C 765.42907,216.76425 767.49657,215.64525 769.29927,214.27025 z M -340.99282,183.30265 C -336.38328,182.49545 -326.08683,179.83265 -318.11183,177.38525 C -304.19377,173.11415 -238.34355,152.79745 -159.14719,128.34005 C -138.54165,121.97665 -121.07115,116.77025 -120.32387,116.77025 C -117.78855,116.77025 -119.5929,114.05635 -128.61184,104.30429 C -144.08634,87.571913 -146.10307,85.291403 -146.10751,84.520283 C -146.10989,84.107783 -147.26625,83.770283 -148.67721,83.770283 C -150.77204,83.770283 -232.64023,100.34932 -314.11183,117.27225 C -323.18683,119.15725 -338.26183,122.26335 -347.61183,124.17455 C -356.96183,126.08585 -388.85628,132.62675 -418.48838,138.70995 C -448.12048,144.79315 -472.95369,149.77025 -473.67328,149.77025 C -474.39287,149.77025 -476.24843,150.25195 -477.79673,150.84055 C -482.1767,152.50585 -488.16741,150.50335 -411.11183,173.13105 C -391.58683,178.86465 -374.71183,183.77685 -373.61183,184.04705 C -369.15709,185.14125 -348.84501,184.67765 -340.99282,183.30265 z M 1208.3882,172.84405 C 1229.2882,166.64515 1252.8906,159.66035 1260.8381,157.32215 C 1268.7855,154.98405 1275.4519,152.57915 1275.6523,151.97805 C 1275.8527,151.37685 1274.3002,150.60415 1272.2024,150.26075 C 1270.1046,149.91745 1242.9632,144.45625 1211.8882,138.12465 C 1160.7496,127.70515 1139.7832,123.40985 1077.8882,110.67237 C 1067.1632,108.46525 1049.8382,104.90406 1039.3882,102.75861 C 1028.9382,100.61316 1005.9882,95.875523 988.38816,92.230523 C 970.78812,88.585533 953.60497,85.104453 950.20317,84.494803 L 944.01827,83.386333 L 937.21387,90.828313 C 933.47147,94.921393 927.14227,101.55804 923.14887,105.57641 C 919.15547,109.59478 915.88817,113.64665 915.88817,114.58045 C 915.88817,115.94425 923.71087,118.68355 955.63817,128.50015 C 977.50062,135.22205 1025.3132,149.97095 1061.8882,161.27535 C 1098.4632,172.57975 1131.7632,182.47085 1135.8882,183.25555 C 1140.7119,184.17315 1148.2055,184.58095 1156.8882,184.39845 L 1170.3882,184.11465 L 1208.3882,172.84405 z M -5.7423656,145.00955 C 15.085844,135.25295 32.185844,126.82025 32.257634,126.27025 C 32.343064,125.61585 11.742794,125.18115 -27.361835,125.01245 C -74.880829,124.80735 -87.111839,125.01245 -87.111839,126.01435 C -87.111839,127.19965 -84.388889,129.80565 -71.111839,141.32755 C -68.086839,143.95265 -64.711839,146.89375 -63.611839,147.86345 C -62.511839,148.83315 -59.811839,151.18145 -57.611839,153.08205 C -55.411839,154.98255 -52.036839,157.92675 -50.111839,159.62465 C -48.186838,161.32245 -45.936838,162.72005 -45.111838,162.73025 C -44.286838,162.74045 -26.570575,154.76615 -5.7423656,145.00955 z M 845.10047,160.52025 C 850.80627,155.39405 859.04857,148.34605 860.66107,147.21435 C 861.61097,146.54765 864.41317,144.11745 866.88817,141.81385 C 869.36317,139.51025 873.41317,135.99365 875.88817,133.99905 C 878.36317,132.00455 880.95067,129.70105 881.63817,128.88035 C 885.11617,124.72815 885.71217,124.77025 823.44717,124.77025 C 785.50807,124.77025 763.78607,125.12655 763.39757,125.75515 C 762.70867,126.86975 763.52807,127.27925 807.38817,147.73545 C 824.98817,155.94395 840.10997,162.68485 840.99217,162.71515 C 841.87437,162.74545 843.72307,161.75775 845.10047,160.52025 z M -484.76522,138.31015 C -478.2914,137.50705 -463.2335,134.82985 -451.30323,132.36075 C -439.37296,129.89165 -420.61183,126.02745 -409.61183,123.77355 C -370.87166,115.83585 -350.49411,111.63862 -339.11183,109.25242 C -332.78683,107.92644 -318.61183,105.00422 -307.61183,102.75859 C -296.61183,100.51297 -279.06183,96.908103 -268.61183,94.747773 C -242.17247,89.281973 -189.34123,78.431633 -172.86183,75.082883 C -157.62972,71.987603 -156.95461,71.427223 -162.24505,66.270283 C -163.93776,64.620283 -168.2931,59.532303 -171.92357,54.963653 C -177.15756,48.377113 -178.94762,46.761033 -180.56813,47.159333 C -181.69216,47.435603 -230.08683,54.014613 -288.11183,61.779363 C -346.13683,69.544113 -399.91183,76.751733 -407.61183,77.796293 C -442.89139,82.582233 -560.02634,98.249443 -591.11183,102.34006 C -610.08683,104.83703 -626.24958,107.09507 -627.02905,107.35793 C -628.00151,107.68586 -628.12298,108.15913 -627.41612,108.86599 C -626.55987,109.72224 -539.29116,135.94495 -528.11183,138.70525 C -522.41799,140.11105 -497.44817,139.88345 -484.76522,138.31015 z M 1348.3882,131.81225 C 1361.5882,127.83605 1381.3882,121.95945 1392.3882,118.75305 C 1418.3883,111.17419 1423.3928,109.48069 1423.3661,108.27028 C 1423.3472,107.41365 1397.8984,103.83516 1271.3882,86.899933 C 1147.3999,70.302293 1045.6747,56.643933 1013.9507,52.334543 L 974.51312,46.977333 L 972.48872,49.550963 C 971.37522,50.966453 969.54712,53.138953 968.42622,54.378723 C 967.30522,55.618503 965.03812,58.316623 963.38812,60.374563 C 961.73812,62.432493 959.15067,65.560323 957.63817,67.325283 C 956.12567,69.090253 954.88817,70.943473 954.88817,71.443563 C 954.88817,71.943643 959.72567,73.317983 965.63812,74.497643 C 979.05182,77.173923 1016.9652,84.946403 1052.3882,92.281923 C 1067.2382,95.357123 1081.4132,98.276703 1083.8882,98.769893 C 1086.3632,99.263073 1103.6882,102.81637 1122.3882,106.66611 C 1238.8863,130.64935 1270.3352,136.97705 1279.3151,138.24055 C 1285.8441,139.15925 1295.5454,139.54955 1306.8882,139.34985 L 1324.3882,139.04175 L 1348.3882,131.81225 z M 899.88817,41.770283 L 899.88817,-29.229717 L 397.88817,-29.229717 L -104.11184,-29.229717 L -104.11184,41.770283 L -104.11184,112.77028 L 397.88817,112.77028 L 899.88817,112.77028 L 899.88817,41.770283 z M -609.55467,91.816883 C -580.95497,87.910353 -550.03464,83.759503 -397.61183,63.364923 C -220.60765,39.681293 -189.11183,35.299973 -189.11183,34.360933 C -189.11183,33.237333 -193.71888,26.253563 -196.4281,23.270283 C -197.42705,22.170283 -199.2102,19.695283 -200.39067,17.770283 C -201.57114,15.845283 -203.07614,13.715823 -203.73512,13.038143 C -204.3941,12.360463 -205.08594,11.389333 -205.27254,10.880083 C -205.48047,10.312643 -210.64491,10.318123 -218.61183,10.894243 C -228.94604,11.641543 -444.40897,26.001303 -554.61183,33.287323 C -604.57268,36.590463 -623.66785,37.872823 -643.61183,39.264213 C -655.16183,40.070003 -669.89933,41.029543 -676.36183,41.396543 C -682.82433,41.763533 -688.11183,42.457403 -688.11183,42.938483 C -688.11183,43.419553 -687.03578,45.491013 -685.72061,47.541723 C -681.6084,53.953763 -662.11183,88.736663 -662.11183,89.661023 C -662.11183,90.807723 -657.49171,93.816483 -654.19826,94.814563 C -648.91041,96.417043 -637.74251,95.667153 -609.55467,91.816883 z M -117.11184,86.161873 C -117.11184,76.675123 -117.14055,76.560673 -119.37922,77.122543 C -120.62627,77.435533 -124.00127,78.196603 -126.87922,78.813813 C -132.52871,80.025413 -133.06093,80.761483 -130.36184,83.630383 C -121.37032,93.187603 -118.73743,95.770283 -117.9859,95.770283 C -117.50517,95.770283 -117.11184,91.446503 -117.11184,86.161873 z M 918.38817,91.904103 C 924.28047,86.245633 927.88817,82.083083 927.88817,80.942953 C 927.88817,80.389133 925.53347,79.431023 922.65557,78.813813 C 919.77757,78.196603 916.40257,77.435533 915.15557,77.122543 C 912.91687,76.560673 912.88817,76.675123 912.88817,86.161873 C 912.88817,91.446503 913.22567,95.764673 913.63817,95.757813 C 914.05067,95.750963 916.18817,94.016793 918.38817,91.904103 z M 1453.553,93.315253 C 1455.2936,92.283723 1457.215,90.501613 1457.8228,89.355013 C 1458.4306,88.208413 1460.0208,85.470283 1461.3566,83.270283 C 1462.6924,81.070283 1464.2081,78.370283 1464.7249,77.270283 C 1465.5876,75.434033 1478.0345,53.549143 1482.4614,46.084843 C 1483.5005,44.332843 1484.1341,42.692433 1483.8694,42.439483 C 1483.6048,42.186523 1455.4882,40.129303 1421.3882,37.867883 C 1174.3083,21.482213 1081.9223,15.339603 1044.8882,12.834953 L 1002.3882,9.9606427 L 1000.5845,12.115463 C 996.59586,16.880733 995.88816,17.814643 995.88816,18.313323 C 995.88816,18.599423 993.41316,22.121843 990.38816,26.140913 C 984.63676,33.782403 983.82926,35.770283 986.47696,35.770283 C 987.81586,35.770283 1065.269,46.054443 1132.8882,55.210643 C 1173.0572,60.649863 1192.0533,63.200313 1289.8882,76.289833 C 1345.7132,83.758763 1400.6132,91.172333 1411.8882,92.764433 C 1435.7449,96.133163 1448.5131,96.301963 1453.553,93.315253 z M -129.6341,66.262353 C -123.04634,64.891713 -117.53384,63.770283 -117.3841,63.770283 C -117.23436,63.770283 -117.11184,58.145283 -117.11184,51.270283 C -117.11184,44.395283 -117.28039,38.770283 -117.4864,38.770283 C -117.69241,38.770283 -127.47991,40.118983 -139.2364,41.767403 C -150.99288,43.415813 -160.94933,44.765813 -161.36183,44.767403 C -163.11334,44.774133 -161.74857,47.092353 -155.86183,54.109773 C -152.42433,58.207523 -148.29609,63.182493 -146.68796,65.165253 C -145.07984,67.148023 -143.27984,68.766713 -142.68796,68.762353 C -142.09609,68.757993 -136.22186,67.632993 -129.6341,66.262353 z M 943.52087,64.020283 C 956.05447,49.605553 959.47007,44.776363 957.13817,44.767403 C 956.72567,44.765813 946.76927,43.415813 935.01277,41.767403 C 923.25627,40.118983 913.46877,38.770283 913.26277,38.770283 C 913.05677,38.770283 912.88817,44.363383 912.88817,51.199383 L 912.88817,63.628483 L 918.63817,64.787303 C 921.80067,65.424643 926.86317,66.531703 929.88817,67.247423 C 938.52547,69.291023 939.04487,69.168063 943.52087,64.020283 z M -139.61184,28.789613 C -127.51184,27.129543 -117.49934,25.771073 -117.36184,25.770793 C -117.22434,25.770513 -117.11184,21.045283 -117.11184,15.270283 L -117.11184,4.7702827 L -122.27958,4.7702827 C -129.40945,4.7702827 -188.49806,8.8231827 -189.02311,9.3482327 C -189.64264,9.9677527 -186.83066,15.132553 -185.36346,16.069973 C -184.67506,16.509803 -184.11183,17.522303 -184.11183,18.319973 C -184.11183,19.117643 -183.77433,19.773353 -183.36183,19.777113 C -182.94933,19.780873 -181.48683,21.468373 -180.11183,23.527113 C -178.73683,25.585853 -176.82433,28.142633 -175.86183,29.208843 C -174.89933,30.275053 -174.11183,31.577623 -174.11183,32.103453 C -174.11183,33.281823 -168.25303,32.719063 -139.61184,28.789613 z M 971.11572,30.020283 C 972.02802,28.507783 973.81252,26.135363 975.08132,24.748243 C 976.35002,23.361123 978.94502,19.986123 980.84806,17.248243 C 982.75096,14.510363 984.66346,12.120283 985.09806,11.936953 C 986.62896,11.291113 985.86636,8.7702027 984.13816,8.7638527 C 983.17566,8.7603127 969.11312,7.8632027 952.88817,6.7702827 C 936.66317,5.6773627 921.02567,4.7802527 918.13817,4.7767127 L 912.88817,4.7702827 L 912.88817,15.209013 L 912.88817,25.647733 L 917.13817,26.274083 C 934.70627,28.863183 963.01742,32.569043 965.92252,32.659833 C 968.77132,32.748853 969.77862,32.236853 971.11572,30.020283 z M -677.95226,27.760633 C -661.81502,26.655333 -641.63683,25.298853 -633.11183,24.746233 C -624.58683,24.193613 -607.93683,23.074023 -596.11183,22.258243 C -577.82425,20.996633 -496.60467,15.609603 -259.87551,-0.043237347 C -236.37054,-1.5974173 -216.85239,-3.1558273 -216.50185,-3.5063573 C -216.15131,-3.8568973 -219.63266,-9.9949173 -224.23817,-17.146407 L -232.61183,-30.149097 L -499.36183,-30.189407 C -714.12104,-30.221857 -766.11183,-29.982607 -766.11183,-28.961847 C -766.11183,-28.264527 -765.06261,-26.127027 -763.78023,-24.211847 C -762.49784,-22.296677 -756.8065,-12.404717 -751.13279,-2.2297173 C -736.0524,24.814853 -731.24017,28.538283 -709.95226,29.633463 C -708.48949,29.708713 -694.08949,28.865943 -677.95226,27.760633 z M 1524.6365,25.767483 C 1532.5192,22.120873 1534.3937,20.060543 1542.1146,6.5566027 C 1545.5651,0.52164265 1549.3775,-6.0616173 1550.5868,-8.0728773 C 1551.796,-10.084137 1553.2832,-12.836567 1553.8917,-14.189397 C 1554.5002,-15.542217 1556.5484,-19.201077 1558.4432,-22.320207 C 1560.3379,-25.439327 1561.8882,-28.494977 1561.8882,-29.110527 C 1561.8882,-29.933317 1491.1696,-30.229717 1294.8568,-30.229717 C 1041.4611,-30.229717 1027.7915,-30.140357 1027.1608,-28.479717 C 1026.7953,-27.517217 1023.4344,-21.966857 1019.6922,-16.145577 C 1015.95,-10.324307 1012.8882,-5.0571973 1012.8882,-4.4408973 C 1012.8882,-2.9205473 1016.4019,-2.4586573 1037.3882,-1.2202773 C 1047.2882,-0.63607735 1064.8382,0.50148265 1076.3882,1.3076527 C 1087.9382,2.1138227 1158.8132,6.8217927 1233.8882,11.769803 C 1308.9632,16.717813 1380.0632,21.436523 1391.8882,22.255823 C 1403.7132,23.075133 1427.5632,24.692833 1444.8882,25.850723 C 1462.2132,27.008613 1481.1132,28.325843 1486.8882,28.777903 C 1492.6632,29.229963 1502.1132,29.387933 1507.8882,29.128943 C 1516.7523,28.731413 1519.3617,28.207693 1524.6365,25.767483 z M -159.11183,-6.7228973 C -139.03684,-8.0831073 -121.37434,-9.2035973 -119.86184,-9.2128673 L -117.11184,-9.2297173 L -117.11184,-19.729717 L -117.11184,-30.229717 L -166.61183,-30.229717 C -201.09899,-30.229717 -216.11183,-29.905247 -216.11183,-29.159887 C -216.11183,-28.571487 -214.76183,-26.127907 -213.11183,-23.729717 C -211.46183,-21.331527 -210.11183,-18.887947 -210.11183,-18.299537 C -210.11183,-17.711137 -209.66183,-17.229717 -209.11183,-17.229717 C -208.56183,-17.229717 -208.11183,-16.554717 -208.11183,-15.729717 C -208.11183,-14.904717 -207.75483,-14.229717 -207.31851,-14.229717 C -206.88218,-14.229717 -205.19468,-11.988647 -203.56851,-9.2495573 C -201.28402,-5.4016373 -200.04346,-4.2671773 -198.11183,-4.2595873 C -196.73683,-4.2541973 -179.18683,-5.3626773 -159.11183,-6.7228973 z M 1003.3882,-14.997377 C 1007.2382,-20.900167 1010.7257,-25.879717 1011.1382,-26.063047 C 1011.5507,-26.246387 1011.8882,-27.258887 1011.8882,-28.313047 C 1011.8882,-30.176127 1010.5041,-30.229717 962.38812,-30.229717 L 912.88817,-30.229717 L 912.88817,-19.729717 L 912.88817,-9.2297173 L 917.13817,-9.1441573 C 919.47567,-9.0971073 935.78817,-8.0331173 953.38817,-6.7797473 C 970.98812,-5.5263673 987.86316,-4.4478173 990.88816,-4.3829673 L 996.38816,-4.2650473 L 1003.3882,-14.997377 z M -242.11183,-44.298187 C -242.11183,-46.156667 -258.32239,-74.311657 -262.89387,-80.393067 C -265.30332,-83.598337 -268.87791,-87.685337 -270.83742,-89.475277 C -272.79692,-91.265217 -275.12688,-93.404717 -276.01511,-94.229717 C -279.07264,-97.069607 -290.37134,-103.29619 -296.48573,-105.51083 L -302.61183,-107.72972 L -562.11183,-107.72972 C -704.83683,-107.72972 -822.81465,-107.39235 -824.28476,-106.98001 C -828.67808,-105.74777 -832.97919,-101.45369 -833.70721,-97.572977 C -834.66837,-92.449577 -832.73354,-87.108857 -825.61272,-75.229717 C -822.15096,-69.454717 -818.48458,-63.316687 -817.46522,-61.589647 C -816.44586,-59.862607 -814.15752,-55.997147 -812.38003,-52.999727 C -809.14214,-47.539627 -805.28337,-44.894157 -799.11183,-43.903417 C -797.73683,-43.682677 -671.84933,-43.440797 -519.36183,-43.365897 C -323.26492,-43.269577 -242.11183,-43.542467 -242.11183,-44.298187 z M 271.88817,-44.371907 C 271.88817,-45.000107 270.94857,-48.712607 269.80017,-52.621907 C 264.27827,-71.419827 255.38497,-84.956877 242.61297,-94.005557 C 232.21377,-101.37321 221.35317,-105.37997 206.91437,-107.1758 C 193.64937,-108.82563 -270.12992,-108.63497 -270.05602,-106.97972 C -270.02532,-106.29222 -267.5678,-103.81011 -264.59486,-101.46392 C -261.62192,-99.117727 -257.93453,-95.517727 -256.40067,-93.463917 C -254.86681,-91.410107 -252.71183,-88.726937 -251.61183,-87.501307 C -250.51183,-86.275687 -244.21183,-75.820057 -237.61183,-64.266577 L -225.61183,-43.260247 L 23.138164,-43.244977 C 208.95777,-43.233577 271.88817,-43.518677 271.88817,-44.371907 z M 1024.3189,-47.979717 C 1025.9228,-50.592217 1031.0189,-59.479717 1035.6435,-67.729717 C 1046.5164,-87.126057 1053.3499,-96.118787 1062.6291,-103.24186 C 1064.4116,-104.61018 1065.8741,-106.30031 1065.8791,-106.99771 C 1065.8864,-108.01902 1019.2474,-108.20718 826.13817,-107.9649 C 597.89427,-107.67853 586.05227,-107.57658 579.38817,-105.84049 C 570.10717,-103.42265 557.73717,-97.511967 550.64577,-92.106727 C 544.11717,-87.130417 536.25547,-76.880487 531.78857,-67.521107 C 529.23087,-62.161817 523.97887,-46.470387 523.90917,-43.979717 C 523.89757,-43.567217 635.82897,-43.229717 772.64547,-43.229717 L 1021.4028,-43.229717 L 1024.3189,-47.979717 z M 1600.3882,-45.214317 C 1602.0382,-46.030857 1603.9607,-47.471237 1604.6605,-48.415167 C 1605.3602,-49.359107 1606.5977,-50.796387 1607.4105,-51.609137 C 1608.2232,-52.421887 1608.8882,-53.364267 1608.8882,-53.703327 C 1608.8882,-54.042387 1612.7822,-60.712027 1617.5414,-68.524757 C 1627.9974,-85.689017 1629.8377,-89.578847 1629.8662,-94.575427 C 1629.8961,-99.798587 1627.3466,-103.71925 1622.499,-105.90523 C 1618.6161,-107.65614 1607.9859,-107.72972 1358.9206,-107.72972 C 1109.2641,-107.72972 1099.1601,-107.65935 1093.3926,-105.88038 C 1087.4418,-104.04488 1075.283,-97.527277 1071.9263,-94.373677 C 1070.9639,-93.469497 1068.634,-91.322517 1066.7488,-89.602597 C 1064.8635,-87.882687 1061.4601,-84.057687 1059.1857,-81.102597 C 1055.0131,-75.681177 1037.8882,-45.997347 1037.8882,-44.185967 C 1037.8882,-43.551547 1135.9982,-43.300197 1317.6382,-43.469297 C 1562.6439,-43.697377 1597.7608,-43.914097 1600.3882,-45.214317 z "
         style="fill:black" />
      <path
         id="path1904"
         d="M -323.39607,992.22439 C -335.69315,990.36769 -348.92862,985.31329 -355.14665,980.09929 C -357.84857,977.83369 -357.87295,977.71329 -356.52459,973.29289 C -355.76963,970.81789 -354.60371,965.53039 -353.93365,961.54289 C -353.23895,957.40869 -352.21698,954.29369 -351.55572,954.29469 C -350.91791,954.29569 -349.18188,956.21849 -347.69786,958.56769 C -343.29268,965.54099 -334.12071,974.05699 -327.51069,977.31109 C -301.84356,989.94699 -273.77695,975.74889 -269.87669,948.15579 C -268.25199,936.66159 -271.35025,927.04129 -279.06355,919.63009 C -284.91681,914.00599 -291.10996,910.54639 -306.44862,904.33229 C -326.30526,896.28769 -334.58587,891.67929 -341.48358,884.83409 C -349.45059,876.92769 -352.03415,870.51499 -352.66796,857.07299 C -353.91276,830.67309 -340.41136,812.79849 -313.78354,805.59369 C -309.26324,804.37059 -303.59595,803.86669 -294.39607,803.86969 C -282.87788,803.87359 -280.51933,804.17989 -273.7044,806.55679 C -269.47399,808.03239 -263.8127,810.59329 -261.12376,812.24779 L -256.23477,815.25609 L -259.81542,826.26999 C -261.78478,832.32759 -263.89023,837.28589 -264.4942,837.28839 C -265.09816,837.29089 -266.39619,835.51019 -267.3787,833.33139 C -272.05611,822.95879 -283.84819,815.31649 -296.42076,814.50959 C -317.97761,813.12619 -334.10775,828.11399 -332.67112,848.19279 C -332.06145,856.71369 -329.18863,863.11129 -323.48113,868.65839 C -317.55899,874.41399 -311.14724,877.96039 -294.23522,884.83439 C -273.85776,893.11699 -267.31292,896.81099 -259.75044,904.29799 C -254.01058,909.98049 -252.81799,911.80589 -251.00044,917.69039 C -246.67407,931.69759 -249.14912,950.81609 -256.97039,963.80509 C -264.31556,976.00349 -278.89365,986.34069 -294.26042,990.24719 C -303.32204,992.55089 -315.67972,993.38949 -323.39607,992.22439 z M -15.968545,992.28599 C -59.764395,987.27119 -89.891125,961.31649 -98.373275,921.29289 C -102.84558,900.18999 -100.72699,877.20469 -92.566005,858.28789 C -81.132555,831.78569 -58.832905,813.99349 -27.103475,806.05729 C -15.498015,803.15449 10.219605,802.92429 23.103925,805.60789 C 46.904969,810.56519 63.143429,819.11469 77.260619,834.12139 C 86.008739,843.42069 91.676989,853.49019 95.679539,866.84229 C 99.260149,878.78679 100.19569,901.16399 97.675449,914.58249 C 90.079869,955.02369 62.004359,982.97729 21.214025,990.71199 C 11.168065,992.61689 -6.5343846,993.36629 -15.968545,992.28599 z M 16.494445,982.32089 C 46.218089,974.71889 68.686939,945.86099 73.230849,909.45149 C 75.823599,888.67619 71.537259,861.62089 63.408189,847.45089 C 53.804899,830.71119 38.279899,818.86959 19.103925,813.65799 C 10.237535,811.24829 -9.8646146,811.26659 -18.896075,813.69249 C -55.890915,823.62979 -76.819305,858.75239 -74.592825,907.16439 C -73.862515,923.04409 -71.230115,933.97609 -65.170715,946.29289 C -61.295365,954.17029 -59.036645,957.25079 -51.946585,964.32849 C -42.356025,973.90239 -33.753415,978.85219 -20.818885,982.23909 C -10.516715,984.93669 6.1240254,984.97319 16.494445,982.32089 z M -176.89607,904.54289 L -176.89607,819.29289 L -184.14607,819.31349 C -191.57806,819.33459 -215.90193,820.72979 -228.39607,821.85159 L -235.39607,822.48009 L -235.43713,814.88649 L -235.4782,807.29289 L -166.93713,807.29289 L -98.396075,807.29289 L -98.396075,814.89749 L -98.396075,822.50209 L -104.89607,821.87549 C -115.4051,820.86259 -140.88131,819.33579 -147.64607,819.31349 L -153.89607,819.29289 L -153.89607,904.54289 L -153.89607,989.79289 L -165.39607,989.79289 L -176.89607,989.79289 L -176.89607,904.54289 z M 1002.1039,904.54289 L 1002.1039,819.29289 L 994.85388,819.31349 C 987.54998,819.33429 963.57498,820.73149 950.60388,821.89229 L 943.60388,822.51879 L 943.60388,814.90499 L 943.60388,807.29129 L 1012.1039,807.29209 L 1080.6039,807.29289 L 1080.6039,814.89749 L 1080.6039,822.50209 L 1074.1039,821.87549 C 1063.5949,820.86259 1038.1187,819.33579 1031.3539,819.31349 L 1025.1039,819.29289 L 1025.1039,904.54289 L 1025.1039,989.79289 L 1013.6039,989.79289 L 1002.1039,989.79289 L 1002.1039,904.54289 z M -524.24331,957.04289 C -516.30207,939.30539 -497.58524,897.43359 -482.65036,863.99449 L -455.49603,803.19599 L -452.47728,803.49449 C -449.49529,803.78929 -449.20477,804.38349 -428.61992,852.29289 C -417.15869,878.96789 -399.65584,919.69289 -389.72472,942.79289 C -379.79359,965.89289 -371.28055,985.80539 -370.80685,987.04289 L -369.94557,989.29289 L -383.76253,989.29289 L -397.57949,989.29289 L -398.83592,985.04289 C -400.67701,978.81519 -412.03351,949.04259 -419.05229,932.04289 L -425.14224,917.29289 L -459.41216,917.29289 C -485.90076,917.29289 -493.79307,917.57669 -494.17086,918.54289 C -506.16059,949.20589 -512.57691,966.30149 -515.93941,976.54289 L -520.12554,989.29289 L -529.40373,989.29289 L -538.68193,989.29289 L -524.24331,957.04289 z M -429.89607,905.99129 C -429.89607,904.53059 -457.66003,840.23349 -458.81855,839.01119 C -459.55011,838.23939 -487.92098,903.62299 -487.90456,906.04289 C -487.89796,907.01399 -481.42488,907.29289 -458.89607,907.29289 C -435.74954,907.29289 -429.89607,907.03019 -429.89607,905.99129 z M 128.10393,898.24299 L 128.10393,807.19309 L 133.46765,807.49299 L 138.83137,807.79289 L 189.63691,862.79289 C 217.57996,893.04289 246.02267,923.86789 252.84294,931.29289 C 259.66321,938.71789 265.99954,944.79289 266.92368,944.79289 C 268.47849,944.79289 268.62313,939.67909 268.86105,876.29289 L 269.11817,807.79289 L 276.11105,807.73679 L 283.10393,807.68069 L 283.10393,898.48679 L 283.10393,989.29289 L 279.19277,989.29289 C 275.59026,989.29289 274.80241,988.73749 269.20954,982.25539 C 263.87302,976.07039 212.53972,919.19869 162.77849,864.34139 C 153.5245,854.13969 145.312,845.64739 144.52849,845.46959 C 143.30593,845.19209 143.10393,855.36599 143.10393,917.21959 L 143.10393,989.29289 L 135.60393,989.29289 L 128.10393,989.29289 L 128.10393,898.24299 z M 397.28883,971.54289 C 401.44533,945.16919 412.55123,867.23269 416.06313,839.79289 C 417.75253,826.59289 419.38043,813.88039 419.68063,811.54289 C 420.19413,807.54449 420.41523,807.29319 423.41523,807.29689 C 426.51263,807.30089 426.81033,807.70879 433.81313,821.54689 C 463.65473,880.51619 501.35753,948.55699 503.10953,946.60379 C 503.50963,946.15779 519.37193,917.44289 538.35913,882.79289 C 583.32923,800.72639 579.16963,807.85219 582.31963,807.48329 C 585.49353,807.11149 584.49693,801.03549 591.14573,861.29289 C 593.90703,886.31789 597.27403,915.79289 598.62813,926.79289 C 602.36323,957.13689 606.05403,985.58629 606.50943,987.54289 C 606.88053,989.13739 605.81443,989.29289 594.51033,989.29289 C 587.06573,989.29289 582.10393,988.90059 582.10393,988.31179 C 582.10393,985.84839 576.79433,927.30049 574.57503,905.29289 C 570.97383,869.57979 568.89713,852.29179 568.20973,852.30129 C 567.87653,852.30599 566.45553,854.44349 565.05203,857.05129 C 563.64853,859.65919 556.03863,873.49289 548.14133,887.79289 C 531.93773,917.13329 509.69413,960.42749 502.54353,976.54289 C 499.92013,982.45539 497.28543,987.29019 496.68883,987.28689 C 496.09213,987.28369 487.87253,971.64619 478.42303,952.53689 C 468.97353,933.42769 453.45843,902.96739 443.94483,884.84729 C 428.14793,854.75939 426.58093,852.15719 425.87873,854.84729 C 425.09623,857.84509 418.43693,915.12659 415.59643,943.29289 C 414.73673,951.81789 413.75443,965.65539 413.41363,974.04289 L 412.79393,989.29289 L 403.64273,989.29289 L 394.49143,989.29289 L 397.28883,971.54289 z M 622.46493,984.04289 C 628.37203,970.76569 692.00043,828.34709 697.18723,816.79289 C 702.87773,804.11669 703.10143,803.79289 706.16983,803.79289 C 709.29023,803.79289 709.37803,803.93619 716.59403,820.79289 C 720.59663,830.14289 737.03193,868.39289 753.11693,905.79289 C 769.20193,943.19289 783.86223,977.28039 785.69523,981.54289 L 789.02803,989.29289 L 775.31603,989.29169 L 761.60393,989.29039 L 757.74623,978.54169 C 752.53713,964.02759 740.07373,932.36349 736.29493,924.04289 L 733.22933,917.29289 L 699.29863,917.29289 L 665.36793,917.29289 L 659.16343,932.54289 C 653.11173,947.41749 644.13263,971.99569 640.53173,983.54289 L 638.73873,989.29289 L 629.43393,989.29289 L 620.12913,989.29289 L 622.46493,984.04289 z M 729.10393,906.36319 C 729.10393,905.57069 724.86043,895.61509 703.15173,845.47619 C 701.64753,842.00199 700.04993,839.15909 699.60163,839.15859 C 698.57753,839.15749 670.20313,905.52099 670.79073,906.54289 C 671.42973,907.65419 729.10393,907.47639 729.10393,906.36319 z M 808.10393,898.29289 L 808.10393,807.29289 L 841.53153,807.29289 C 859.91673,807.29289 878.47923,807.76219 882.78153,808.33579 C 912.04133,812.23679 925.10123,825.55089 923.91913,850.27429 C 923.55083,857.97769 923.02193,860.07429 919.80403,866.58519 C 912.99043,880.37159 899.80003,889.95949 879.66493,895.76169 C 874.74843,897.17849 870.54313,898.52039 870.31973,898.74379 C 870.09633,898.96719 875.01893,905.63699 881.25873,913.56559 C 915.08313,956.54439 925.59353,969.70439 932.96343,978.30469 C 937.43533,983.52319 941.09628,988.13039 941.09898,988.54289 C 941.10168,988.95539 934.46643,989.28559 926.35393,989.27669 L 911.60393,989.26039 L 906.60393,982.08579 C 897.71073,969.32479 864.11063,926.15409 852.82983,912.99489 L 841.85873,900.19689 L 836.73133,900.49489 L 831.60393,900.79289 L 831.34353,945.04289 L 831.08313,989.29289 L 819.59353,989.29289 L 808.10393,989.29289 L 808.10393,898.29289 z M 860.05693,890.23959 C 880.85433,887.63179 894.22663,878.01089 899.31283,861.99629 C 901.83213,854.06409 901.32723,843.00739 898.10363,835.51369 C 895.22233,828.81609 888.12583,822.22979 880.55333,819.22529 C 874.96313,817.00729 873.30583,816.86259 853.10393,816.82879 L 831.60393,816.79289 L 831.34123,853.22609 C 831.13593,881.70829 831.35413,889.83409 832.34123,890.46079 C 834.14563,891.60609 850.17883,891.47819 860.05693,890.23959 z M 1111.8433,898.55049 L 1112.0826,807.80799 L 1123.0933,807.75239 L 1134.1039,807.69669 L 1134.1039,898.49479 L 1134.1039,989.29289 L 1122.8539,989.29289 L 1111.6039,989.29289 L 1111.8433,898.55049 z M 1173.1039,898.29289 L 1173.1039,807.29289 L 1178.3539,807.36349 L 1183.6039,807.43409 L 1247.1003,876.36349 C 1282.0234,914.27469 1311.1609,945.29289 1311.8504,945.29289 C 1312.843,945.29289 1313.104,930.97549 1313.104,876.51509 L 1313.104,807.73739 L 1320.604,807.73739 L 1328.104,807.73739 L 1328.104,898.51509 L 1328.104,989.29289 L 1323.854,989.23609 C 1319.9183,989.18349 1319.2619,988.75809 1314.9812,983.48609 C 1303.2919,969.08979 1190.7033,845.79289 1189.2466,845.79289 C 1187.7406,845.79289 1187.5825,851.76499 1187.3473,917.54289 L 1187.0907,989.29289 L 1180.0973,989.29289 L 1173.1039,989.29289 L 1173.1039,898.29289 z "
         style="fill:#4c4c4c;fill-opacity:1" />
      <path
         style="fill:white;fill-opacity:1"
         d="M 27.63617,89.891853 C 21.393524,88.949293 14.674504,86.383419 11.517908,83.736518 C 10.146267,82.586381 10.133898,82.525254 10.81839,80.281231 C 11.201654,79.02479 11.79353,76.340573 12.133687,74.316314 C 12.486359,72.217579 13.005161,70.636244 13.340847,70.636747 C 13.664641,70.637251 14.545937,71.613371 15.299307,72.805946 C 17.535606,76.345961 22.191778,80.66913 25.547366,82.321075 C 38.577352,88.735724 52.825438,81.528025 54.805409,67.520317 C 55.630195,61.685258 54.057353,56.80149 50.141679,53.039175 C 47.170261,50.184083 44.02629,48.427813 36.239578,45.273206 C 26.159307,41.189349 21.955634,38.849883 18.453997,35.3749 C 14.409528,31.361197 13.097979,28.105774 12.776218,21.281909 C 12.144296,7.8799351 18.998315,-1.1941506 32.515989,-4.8516851 C 34.810731,-5.4725947 37.687747,-5.7284006 42.358092,-5.726878 C 48.205327,-5.7248981 49.402647,-5.5694041 52.862268,-4.3627651 C 55.009844,-3.6136726 57.88381,-2.3136259 59.248864,-1.4737147 L 61.73077,0.053457019 L 59.913044,5.6446907 C 58.913287,8.7198461 57.844451,11.236939 57.537844,11.238208 C 57.231246,11.239477 56.572297,10.3355 56.073523,9.2294277 C 53.699028,3.9637519 47.712746,0.084119539 41.330254,-0.32550563 C 30.386865,-1.0277926 22.198356,6.5808018 22.927667,16.773854 C 23.237169,21.099509 24.695563,24.347267 27.592982,27.163266 C 30.599371,30.085111 33.854318,31.885449 42.439741,35.375052 C 52.784411,39.579735 56.106917,41.455003 59.946026,45.255798 C 62.859891,48.140529 63.465308,49.067202 64.387996,52.05448 C 66.584286,59.165275 65.327817,68.870831 61.357329,75.464729 C 57.628536,81.65727 50.227928,86.904979 42.426952,88.88812 C 37.826795,90.057598 31.553393,90.483317 27.63617,89.891853 z M 183.70251,89.923122 C 161.46944,87.377349 146.17553,74.20138 141.86955,53.883301 C 139.59917,43.17036 140.67468,31.501817 144.81762,21.898656 C 150.62184,8.4447492 161.94231,-0.58750581 178.04983,-4.6163373 C 183.94138,-6.0899505 196.99699,-6.2068122 203.53775,-4.8444766 C 215.6204,-2.3278907 223.86391,2.0122852 231.03053,9.6304729 C 235.47153,14.351285 238.34903,19.463092 240.38094,26.241318 C 242.19864,32.304974 242.67358,43.664814 241.39417,50.476745 C 237.53826,71.006827 223.28565,85.197541 202.57833,89.124081 C 197.47847,90.091103 188.49178,90.471544 183.70251,89.923122 z M 200.18242,84.86432 C 215.2717,81.005146 226.67808,66.355355 228.98481,47.87198 C 230.30102,37.325352 228.12505,23.590662 223.99831,16.397227 C 219.12317,7.8992764 211.24187,1.8878596 201.50714,-0.75782261 C 197.00609,-1.9811133 186.80119,-1.9718233 182.21634,-0.74030902 C 163.43582,4.3043864 152.81147,22.134461 153.94175,46.71093 C 154.31249,54.772302 155.64883,60.321963 158.72491,66.574614 C 160.69224,70.573596 161.83888,72.137423 165.43817,75.730429 C 170.30684,80.590642 174.67398,83.103424 181.24022,84.82279 C 186.47015,86.192232 194.91786,86.210766 200.18242,84.86432 z M 102.00725,45.380123 L 102.00725,2.1027482 L 98.32678,2.1132064 C 94.55391,2.1239174 82.205836,2.8321943 75.863161,3.401679 L 72.309587,3.7207385 L 72.288744,-0.1341718 L 72.267892,-3.9890814 L 107.06294,-3.9890814 L 141.85797,-3.9890814 L 141.85797,-0.12858772 L 141.85797,3.7319067 L 138.55824,3.4138119 C 133.2233,2.8996109 120.29024,2.1245266 116.85609,2.1132064 L 113.68326,2.1027482 L 113.68326,45.380123 L 113.68326,88.657492 L 107.84526,88.657492 L 102.00725,88.657492 L 102.00725,45.380123 z M 700.5295,45.380123 L 700.5295,2.1027482 L 696.84902,2.1132064 C 693.14117,2.1237653 680.97021,2.8330573 674.38539,3.4223406 L 670.83183,3.740385 L 670.83183,-0.1247801 L 670.83183,-3.989894 L 705.60603,-3.9894882 L 740.38022,-3.9890814 L 740.38022,-0.12858772 L 740.38022,3.7319067 L 737.08048,3.4138119 C 731.74556,2.8996109 718.8125,2.1245266 715.37833,2.1132064 L 712.2055,2.1027482 L 712.2055,45.380123 L 712.2055,88.657492 L 706.3675,88.657492 L 700.5295,88.657492 L 700.5295,45.380123 z M -74.324477,72.031879 C -70.293035,63.027389 -60.791392,41.771067 -53.209684,24.795626 L -39.424743,-6.0688831 L -37.892258,-5.9173488 C -36.378372,-5.7676926 -36.230959,-5.4660459 -25.780984,18.85528 C -19.962655,32.396909 -11.077295,53.071058 -6.0357345,64.797832 C -0.99417422,76.524605 3.3274933,86.633232 3.5679707,87.261453 L 4.0051965,88.403666 L -3.0090155,88.403666 L -10.023227,88.403666 L -10.661059,86.246149 C -11.595694,83.084642 -17.360848,67.970506 -20.923951,59.340566 L -24.015516,51.852693 L -41.412749,51.852693 C -54.859713,51.852693 -58.866235,51.996761 -59.058082,52.487253 C -65.144685,68.053402 -68.40196,76.732027 -70.108976,81.931105 L -72.234042,88.403666 L -76.944094,88.403666 L -81.654237,88.403666 L -74.324477,72.031879 z M -26.428811,46.115408 C -26.428811,45.373875 -40.523236,12.733296 -41.111419,12.112792 C -41.482745,11.720986 -55.885279,44.913131 -55.876942,46.141601 C -55.873643,46.634586 -52.58751,46.776162 -41.150723,46.776162 C -29.400331,46.776162 -26.428811,46.642804 -26.428811,46.115408 z M 256.84126,42.181961 L 256.84126,-4.0397458 L 259.56417,-3.8875006 L 262.28707,-3.7352553 L 288.07863,24.18563 C 302.26399,39.542118 316.703,55.190508 320.16533,58.959832 C 323.62765,62.729147 326.8443,65.813136 327.31345,65.813136 C 328.10275,65.813136 328.17617,63.217101 328.29696,31.038939 L 328.42749,-3.7352553 L 331.97743,-3.7637346 L 335.52739,-3.7922139 L 335.52739,42.305727 L 335.52739,88.403666 L 333.54188,88.403666 C 331.71305,88.403666 331.31311,88.121722 328.47386,84.831063 C 325.76477,81.691233 299.7053,52.820173 274.44389,24.971731 C 269.74608,19.792812 265.57698,15.481676 265.17923,15.391415 C 264.5586,15.250541 264.45605,20.415346 264.45605,51.815478 L 264.45605,88.403666 L 260.64865,88.403666 L 256.84126,88.403666 L 256.84126,42.181961 z M 393.49363,79.392835 C 395.60369,66.004167 401.24164,26.439506 403.02446,12.509624 C 403.88209,5.8086117 404.70849,-0.64492062 404.86089,-1.8315588 C 405.12157,-3.8613566 405.23381,-3.9889293 406.75677,-3.9870512 C 408.32917,-3.9850209 408.4803,-3.777949 412.03529,3.2469977 C 427.18445,33.182908 446.32437,67.723991 447.21378,66.732443 C 447.41689,66.506029 455.46942,51.928836 465.10833,34.33868 C 487.93751,-7.3225814 485.82587,-3.7051517 487.42498,-3.892425 C 489.03622,-4.0811697 488.53029,-7.1656664 491.90557,23.424152 C 493.30735,36.128155 495.01662,51.091214 495.70403,56.675388 C 497.60016,72.079594 499.47381,86.522009 499.70499,87.515279 C 499.89338,88.324728 499.35217,88.403666 493.61362,88.403666 C 489.83435,88.403666 487.31548,88.204517 487.31548,87.905615 C 487.31548,86.655065 484.62005,56.933071 483.49341,45.760858 C 481.66526,27.631017 480.61102,18.854721 480.26206,18.859544 C 480.09291,18.86193 479.37153,19.947037 478.65904,21.270893 C 477.94655,22.5948 474.08337,29.617512 470.07428,36.876942 C 461.84849,51.771666 450.55646,73.750082 446.92644,81.931105 C 445.59468,84.932593 444.25716,87.386996 443.95429,87.38532 C 443.65138,87.383698 439.47868,79.445277 434.68161,69.744394 C 429.88455,60.043565 422.00827,44.580312 417.17867,35.381601 C 409.15933,20.107404 408.36385,18.786391 408.00737,20.152027 C 407.61013,21.673867 404.22952,50.752963 402.78753,65.051658 C 402.3511,69.37939 401.85244,76.404037 401.67943,80.661966 L 401.36484,88.403666 L 396.71921,88.403666 L 392.07353,88.403666 L 393.49363,79.392835 z M 507.80484,85.738497 C 510.8036,78.998294 543.10471,6.6991358 545.7378,0.83361695 C 548.6266,-5.6014876 548.74016,-5.7658658 550.29784,-5.7658658 C 551.88192,-5.7658658 551.92649,-5.6931188 555.58971,2.8642274 C 557.62164,7.6107777 565.96507,27.028484 574.13065,46.014684 C 582.29624,65.000892 589.73858,82.305491 590.66911,84.469366 L 592.36101,88.403666 L 585.40008,88.403061 L 578.4391,88.402401 L 576.48073,82.945796 C 573.83631,75.577675 567.50924,59.503316 565.59092,55.27934 L 564.03466,51.852693 L 546.80966,51.852693 L 529.58466,51.852693 L 526.43492,59.594392 C 523.36276,67.145519 518.8045,79.622704 516.9765,85.48467 L 516.06628,88.403666 L 511.34267,88.403666 L 506.61906,88.403666 L 507.80484,85.738497 z M 561.94039,46.304204 C 561.94039,45.901884 559.78617,40.847902 548.7657,15.394765 C 548.00209,13.631079 547.19106,12.187873 546.96347,12.18762 C 546.44359,12.187062 532.03925,45.876653 532.33755,46.395427 C 532.66194,46.95958 561.94039,46.869319 561.94039,46.304204 z M 602.04494,42.207294 L 602.04494,-3.9890814 L 619.01452,-3.9890814 C 628.34781,-3.9890814 637.77111,-3.7508404 639.95519,-3.4596509 C 654.80899,-1.4792988 661.43889,5.2796374 660.83879,17.830533 C 660.65182,21.741182 660.38333,22.805526 658.74975,26.110801 C 655.29081,33.109501 648.59467,37.976822 638.37304,40.922323 C 635.87717,41.641565 633.74233,42.322785 633.62892,42.436194 C 633.51551,42.549604 636.01448,45.935545 639.18213,49.960518 C 656.35318,71.778814 661.6888,78.45952 665.43015,82.825484 C 667.70032,85.474666 669.55884,87.813521 669.56021,88.022931 C 669.56158,88.232341 666.19315,88.399964 662.07482,88.395448 L 654.58695,88.387175 L 652.04869,84.74497 C 647.53403,78.266812 630.47686,56.351099 624.75013,49.670796 L 619.18062,43.173864 L 616.57771,43.325144 L 613.97477,43.476425 L 613.84258,65.940044 L 613.71039,88.403666 L 607.87766,88.403666 L 602.04494,88.403666 L 602.04494,42.207294 z M 628.41899,38.119015 C 638.97684,36.795159 645.76532,31.911085 648.34734,23.781235 C 649.62627,19.754434 649.36996,14.141472 647.73349,10.337277 C 646.27079,6.9372247 642.66824,3.5936734 638.82403,2.0684311 C 635.98616,0.94245845 635.14482,0.86900052 624.88928,0.85184241 L 613.97477,0.83361695 L 613.84141,19.329021 C 613.73719,33.78808 613.84796,37.913163 614.34906,38.231308 C 615.26507,38.812722 623.40434,38.747794 628.41899,38.119015 z M 756.23897,42.338065 L 756.36046,-3.7275897 L 761.95006,-3.7558152 L 767.53962,-3.784092 L 767.53962,42.309789 L 767.53962,88.403666 L 761.82853,88.403666 L 756.11744,88.403666 L 756.23897,42.338065 z M 787.33809,42.207294 L 787.33809,-3.9890814 L 790.00326,-3.9532416 L 792.66843,-3.9174008 L 824.90254,31.074779 C 842.63135,50.320492 857.42306,66.066962 857.77309,66.066962 C 858.27699,66.066962 858.40949,58.798695 858.40949,31.151739 L 858.40949,-3.7634304 L 862.21688,-3.7634304 L 866.02427,-3.7634304 L 866.02427,42.320094 L 866.02427,88.403666 L 863.86675,88.374834 C 861.86878,88.348136 861.53556,88.132176 859.36245,85.455829 C 853.42835,78.147516 796.27246,15.555538 795.53297,15.555538 C 794.76844,15.555538 794.68819,18.58729 794.56878,51.979601 L 794.43852,88.403666 L 790.88831,88.403666 L 787.33809,88.403666 L 787.33809,42.207294 z "
         id="path2810" />
    </g>
  </g>
</svg>
